Coordinates
version=1
nRows=9
nColumns=24
inDegrees=yes

Units are S.I. units (second, meters, Newtons, ...)
Angles are in degrees.

endheader
time	pelvis_tilt	pelvis_list	pelvis_rotation	pelvis_tx	pelvis_ty	pelvis_tz	hip_flexion_r	hip_adduction_r	hip_rotation_r	knee_angle_r	ankle_angle_r	subtalar_angle_r	mtp_angle_r	hip_flexion_l	hip_adduction_l	hip_rotation_l	knee_angle_l	ankle_angle_l	subtalar_angle_l	mtp_angle_l	lumbar_extension	lumbar_bending	lumbar_rotation
      1.31300000	     -3.51054559	      6.44367464	     -1.08232275	      0.18689368	      0.90113896	      0.35604285	     17.98409012	    -11.25130113	    -11.10270943	    -73.37966145	     -2.00018173	      6.00129994	     11.22178257	     13.94312508	     10.79680732	     -4.69457472	    -18.46641405	      9.34925826	     -7.41697432	      1.41422806	     -3.50297258	     -9.76998281	      2.36622490
      1.31716667	     -3.57572778	      6.32548690	     -0.87361360	      0.19193812	      0.90195386	      0.35562576	     18.70331488	    -11.10457420	    -11.15255179	    -73.20850555	     -1.22334605	      6.18107101	     11.19380991	     13.41040125	     10.76102726	     -4.36455331	    -18.01646196	      9.38872442	     -7.41226160	      1.41079042	     -3.48221634	     -9.62637911	      2.09549795
      1.32133333	     -3.62175185	      6.20078454	     -0.65724177	      0.19697830	      0.90279483	      0.35519458	     19.38052131	    -10.95213841	    -11.20600149	    -72.95720586	     -0.48341239	      6.37225261	     11.16426853	     12.84922844	     10.71931088	     -4.01163700	    -17.54813781	      9.40953067	     -7.43363613	      1.40363750	     -3.48491204	     -9.46886370	      1.80964548
      1.32550000	     -3.65600200	      6.06524465	     -0.43564041	      0.20201404	      0.90364818	      0.35475632	     20.02371113	    -10.78574582	    -11.25635147	    -72.62502285	      0.22126272	      6.56764026	     11.13525227	     12.27150809	     10.66296664	     -3.65244028	    -17.07063991	      9.42254902	     -7.45799877	      1.39368589	     -3.50121330	     -9.29777536	      1.53271016
      1.32966667	     -3.68635199	      5.90374950	     -0.20184413	      0.20700790	      0.90450161	      0.35433673	     20.64025145	    -10.57912978	    -11.30819735	    -72.20988290	      0.91028775	      6.70085218	     11.12522468	     11.71239316	     10.56588756	     -3.32561909	    -16.63657588	      9.42758761	     -7.41478101	      1.38697244	     -3.54275672	     -9.09814522	      1.34151136
      1.33383333	     -3.66759366	      5.77098109	      0.02182167	      0.21206318	      0.90541859	      0.35387627	     21.18248276	    -10.42545398	    -11.35701554	    -71.72372870	      1.52546366	      6.98292616	     11.09283963	     11.04717177	     10.51265061	     -2.92126857	    -16.09238197	      9.43197213	     -7.49982150	      1.36941617	     -3.60709149	     -8.92557279	      0.97038580
      1.33800000	     -3.65353916	      5.61128050	      0.25351793	      0.21707514	      0.90631387	      0.35343991	     21.70958055	    -10.22826697	    -11.40159300	    -71.15797036	      2.12284758	      7.17067450	     11.06079110	     10.40901711	     10.41666591	     -2.54488454	    -15.58823642	      9.41960304	     -7.54041732	      1.34965061	     -3.68075639	     -8.72273918	      0.69937496
      1.34216667	     -3.64556631	      5.42459962	      0.49451649	      0.22205075	      0.90718338	      0.35302496	     22.21964346	     -9.99346215	    -11.44792268	    -70.51185087	      2.71542050	      7.30712221	     11.04805411	      9.80710667	     10.27534804	     -2.22252870	    -15.13988745	      9.40382416	     -7.49810717	      1.33788018	     -3.75358051	     -8.50423422	      0.51292939
      1.34633333	     -3.56725597	      5.27690017	      0.71992900	      0.22708272	      0.90812722	      0.35256800	     22.63611462	     -9.82408450	    -11.49411309	    -69.80746073	      3.22199764	      7.53054787	     11.01044946	      9.07190657	     10.18716307	     -1.82196101	    -14.57194499	      9.40062642	     -7.57697541	      1.31265976	     -3.89372530	     -8.30194369	      0.15441852
